<svg width="255" height="132" viewBox="0 0 255 132" fill="none" xmlns="http://www.w3.org/2000/svg">
<path d="M48.4706 0L30.4922 46.1119L63.5699 91.2485L105.841 87.9692L104.491 53.451L70.4609 48.0227L69.7602 66.106L82.4282 69.4009L82.0948 63.2621L90.216 62.8215L91.1517 80.0776L61.3814 72.3332L62.6886 38.5437L92.5634 43.3094L91.4946 5.84796L48.4706 0ZM32.0732 19.6672L0 37.046L11.2958 96.8635L72.7886 132L140 97.1539L135.103 35.2414L100.456 34.8113L100.736 44.6124L112.357 46.4658L114.273 95.476L59.6864 99.7109L21.2922 47.3187L32.0732 19.6672Z" fill="#77A19B"/>
<path d="M206.529 0L224.508 46.1119L191.43 91.2485L149.159 87.9692L150.508 53.451L184.539 48.0227L185.24 66.106L172.572 69.4009L172.905 63.2621L164.784 62.8215L163.848 80.0776L193.619 72.3332L192.311 38.5437L162.437 43.3094L163.505 5.84796L206.529 0ZM222.927 19.6672L255 37.046L243.704 96.8635L182.211 132L115 97.1539L119.897 35.2414L154.544 34.8113L154.264 44.6124L142.643 46.4658L140.727 95.476L195.314 99.7109L233.708 47.3187L222.927 19.6672Z" fill="#77A19B"/>
</svg>
