<svg width="1321" height="861" viewBox="0 0 1321 861" fill="none" xmlns="http://www.w3.org/2000/svg">
<g opacity="0.6" filter="url(#filter0_f_33_1068)">
<path d="M375.028 200L310.108 360.859L429.551 518.317L582.191 506.877L577.32 386.462L454.435 367.525L451.905 430.608L497.649 442.102L496.445 420.687L525.771 419.15L529.15 479.348L421.649 452.331L426.369 334.458L534.247 351.083L530.388 220.4L375.028 200ZM315.817 268.608L200 329.234L240.789 537.904L462.84 660.477L705.541 538.917L687.86 322.938L562.748 321.438L563.757 355.629L605.722 362.094L612.641 533.064L415.528 547.837L276.886 365.069L315.817 268.608Z" fill="#9FBDB8"/>
<path d="M945.78 200L1010.7 360.859L891.256 518.317L738.616 506.877L743.488 386.462L866.373 367.525L868.903 430.608L823.159 442.102L824.362 420.687L795.037 419.15L791.658 479.348L899.159 452.331L894.438 334.458L786.56 351.083L790.42 220.4L945.78 200ZM1004.99 268.608L1120.81 329.234L1080.02 537.904L857.967 660.477L615.266 538.917L632.948 322.938L758.06 321.438L757.051 355.629L715.086 362.094L708.167 533.064L905.279 547.837L1043.92 365.069L1004.99 268.608Z" fill="#9FBDB8"/>
<path d="M413.431 230.974L357.247 370.193L460.617 506.468L592.716 496.567L588.501 392.351L482.152 375.962L479.963 430.558L519.551 440.506L518.509 421.972L543.889 420.642L546.813 472.741L453.778 449.359L457.863 347.343L551.224 361.732L547.884 248.63L413.431 230.974ZM362.188 290.352L261.957 342.822L297.257 523.42L489.427 629.503L699.467 524.297L684.165 337.373L575.89 336.075L576.763 365.666L613.08 371.261L619.068 519.231L448.481 532.017L328.497 373.837L362.188 290.352Z" fill="#77A19B"/>
<path d="M907.376 230.974L963.56 370.193L860.19 506.468L728.091 496.567L732.307 392.351L838.655 375.962L840.845 430.558L801.257 440.506L802.298 421.972L776.919 420.642L773.995 472.741L867.029 449.359L862.944 347.343L769.583 361.732L772.923 248.63L907.376 230.974ZM958.619 290.352L1058.85 342.822L1023.55 523.42L831.381 629.503L621.34 524.297L636.643 337.373L744.918 336.075L744.045 365.666L707.727 371.261L701.739 519.231L872.326 532.017L992.311 373.837L958.619 290.352Z" fill="#77A19B"/>
<path d="M458.456 268.142L412.515 381.393L497.04 492.249L605.056 484.195L601.609 399.418L514.648 386.086L512.858 430.499L545.229 438.591L544.377 423.514L565.13 422.432L567.521 464.813L491.447 445.793L494.788 362.806L571.128 374.51L568.397 282.505L458.456 268.142ZM416.555 316.445L334.596 359.127L363.461 506.039L520.597 592.334L692.346 506.752L679.833 354.695L591.297 353.639L592.011 377.71L621.708 382.262L626.604 502.631L487.116 513.032L389.005 384.357L416.555 316.445Z" fill="#145D52"/>
<path d="M862.352 268.142L908.293 381.393L823.768 492.249L715.751 484.195L719.199 399.418L806.159 386.086L807.949 430.499L775.578 438.591L776.43 423.514L755.678 422.432L753.287 464.813L829.36 445.793L826.02 362.806L749.679 374.51L752.41 282.505L862.352 268.142ZM904.253 316.445L986.212 359.127L957.347 506.039L800.211 592.334L628.462 506.752L640.974 354.695L729.51 353.639L728.797 377.71L699.1 382.262L694.204 502.631L833.692 513.032L931.802 384.357L904.253 316.445Z" fill="#145D52"/>
</g>
<defs>
<filter id="filter0_f_33_1068" x="0" y="0" width="1320.81" height="860.477" filterUnits="userSpaceOnUse" color-interpolation-filters="sRGB">
<feFlood flood-opacity="0" result="BackgroundImageFix"/>
<feBlend mode="normal" in="SourceGraphic" in2="BackgroundImageFix" result="shape"/>
<feGaussianBlur stdDeviation="100" result="effect1_foregroundBlur_33_1068"/>
</filter>
</defs>
</svg>
