<svg width="965" height="646" viewBox="0 0 965 646" fill="none" xmlns="http://www.w3.org/2000/svg">
<g filter="url(#filter0_i_108_1746)">
<path d="M467.906 11.4568C471.619 -3.81889 493.343 -3.81891 497.057 11.4567L553.913 245.339C556.55 256.187 569.689 260.456 578.198 253.23L761.668 97.4342C773.651 87.2587 791.226 100.028 785.252 114.569L693.777 337.203C689.534 347.529 697.654 358.705 708.785 357.861L948.791 339.661C964.466 338.472 971.179 359.133 957.799 367.385L752.933 493.732C743.431 499.592 743.431 513.407 752.933 519.266L957.799 645.614C971.179 653.866 964.466 674.527 948.791 673.338L708.786 655.138C697.654 654.294 689.534 665.47 693.777 675.796L785.252 898.43C791.226 912.971 773.651 925.74 761.668 915.564L578.198 759.769C569.689 752.543 556.55 756.812 553.913 767.659L497.057 1001.54C493.343 1016.82 471.619 1016.82 467.906 1001.54L411.05 767.659C408.413 756.812 395.274 752.543 386.765 759.769L203.294 915.564C191.311 925.74 173.736 912.971 179.711 898.43L271.186 675.796C275.428 665.47 267.308 654.294 256.177 655.138L16.172 673.338C0.496468 674.527 -6.21665 653.866 7.16383 645.614L212.03 519.266C221.531 513.407 221.531 499.592 212.03 493.732L7.16383 367.385C-6.21664 359.133 0.496452 338.472 16.172 339.661L256.177 357.861C267.308 358.705 275.428 347.529 271.186 337.203L179.711 114.569C173.736 100.028 191.311 87.2587 203.294 97.4342L386.765 253.23C395.274 260.456 408.413 256.187 411.05 245.339L467.906 11.4568Z" fill="white" fill-opacity="0.2"/>
</g>
<defs>
<filter id="filter0_i_108_1746" x="0" y="0" width="964.963" height="1013" filterUnits="userSpaceOnUse" color-interpolation-filters="sRGB">
<feFlood flood-opacity="0" result="BackgroundImageFix"/>
<feBlend mode="normal" in="SourceGraphic" in2="BackgroundImageFix" result="shape"/>
<feColorMatrix in="SourceAlpha" type="matrix" values="0 0 0 0 0 0 0 0 0 0 0 0 0 0 0 0 0 0 127 0" result="hardAlpha"/>
<feOffset/>
<feGaussianBlur stdDeviation="25"/>
<feComposite in2="hardAlpha" operator="arithmetic" k2="-1" k3="1"/>
<feColorMatrix type="matrix" values="0 0 0 0 1 0 0 0 0 1 0 0 0 0 1 0 0 0 0.25 0"/>
<feBlend mode="normal" in2="shape" result="effect1_innerShadow_108_1746"/>
</filter>
</defs>
</svg>
