<svg width="10" height="10" viewBox="0 0 10 10" fill="none" xmlns="http://www.w3.org/2000/svg">
<path d="M7.41696 0.00502298C7.24306 0.0284579 7.08089 0.126103 6.97929 0.280383C6.84643 0.483485 6.84252 0.751033 6.97147 0.956089C7.08089 1.1299 7.27433 1.20411 7.4365 1.31738C7.58304 1.41893 7.78038 1.57516 7.97773 1.78998C8.3685 2.21376 8.74951 2.85041 8.74951 3.74875C8.74951 4.09441 9.02892 4.37368 9.37476 4.37368C9.72059 4.37368 10 4.09441 10 3.74875C10 2.45983 9.44314 1.53415 8.89605 0.942418C8.62446 0.647529 8.35287 0.43271 8.14771 0.2921C7.93279 0.143679 7.68855 -0.0320822 7.41305 0.00502298H7.41696ZM4.68933 2.49888C3.56389 2.49888 2.6358 3.35035 2.51465 4.44203C2.47753 4.78574 2.16686 5.03181 1.82493 4.9947C1.483 4.95759 1.23486 4.64708 1.27198 4.30532C1.46151 2.58677 2.91911 1.24902 4.68933 1.24902C6.58851 1.24902 8.12818 2.78792 8.12818 4.68614C8.12818 5.58448 7.78234 6.40275 7.21766 7.01596C6.9832 7.26984 6.87769 7.50028 6.87769 7.69362V7.81275C6.87769 9.02159 5.89879 10 4.68933 10C4.34349 10 4.06409 9.72073 4.06409 9.37507C4.06409 9.02941 4.34349 8.75014 4.68933 8.75014C5.20711 8.75014 5.6272 8.33027 5.6272 7.81275V7.69362C5.6272 7.05111 5.96718 6.52969 6.29934 6.17035C6.65885 5.77977 6.87769 5.2603 6.87769 4.68809C6.87769 3.47924 5.89879 2.50084 4.68933 2.50084V2.49888ZM0 9.37312C0 9.02745 0.279406 8.74819 0.625244 8.74819C0.971083 8.74819 1.25049 9.02745 1.25049 9.37312C1.25049 9.71878 0.971083 9.99805 0.625244 9.99805C0.279406 9.99805 0 9.71878 0 9.37312ZM3.12622 7.49833C3.47206 7.49833 3.75147 7.21906 3.75147 6.8734C3.75147 6.52773 3.47206 6.24847 3.12622 6.24847C2.78038 6.24847 2.50098 6.52773 2.50098 6.8734C2.50098 7.21906 2.78038 7.49833 3.12622 7.49833ZM1.69207 7.05697C1.44783 6.81286 1.05119 6.81286 0.806956 7.05697C0.56272 7.30108 0.56272 7.69752 0.806956 7.94164L2.05744 9.1915C2.30168 9.43561 2.69832 9.43561 2.94256 9.1915C3.18679 8.94738 3.18679 8.55094 2.94256 8.30683L1.69207 7.05697ZM4.68933 4.06121C4.34349 4.06121 4.06409 4.34048 4.06409 4.68614C4.06409 4.94588 3.85502 5.15484 3.59515 5.15484C3.33529 5.15484 3.12622 4.94588 3.12622 4.68614C3.12622 3.82296 3.82571 3.12382 4.68933 3.12382C5.55295 3.12382 6.25244 3.82296 6.25244 4.68614C6.25244 4.94588 6.04338 5.15484 5.78351 5.15484C5.52364 5.15484 5.31458 4.94588 5.31458 4.68614C5.31458 4.34048 5.03517 4.06121 4.68933 4.06121Z" fill="#0E4139" fill-opacity="0.6"/>
</svg>
